# xmcd
#
# Track frame offsets:
#	150
#	18038
#	26224
#	49978
#	68170
#	76745
#	105846
#	130033
#	140395
#	144742
#	152183
#	164823
#	185728
#
# Disc length: 3187 seconds
#
# Revision: 0
# Processed by: cddbd v1.5PL3 Copyright (c) Steve Scherf et al.
# Submitted via: dBpowerAMP V4.0
#
DISCID=af0c710d
DTITLE=Kansas - KOE
DYEAR=1900
DGENRE=Humour
TTITLE0=Intro KOE
TTITLE1=Leck mi am arsch
TTITLE2=Le sex machine
TTITLE3=Johnny Star
TTITLE4=Europe nain
TTITLE5=Tu es mon oasis
TTITLE6=Ze day of day
TTITLE7=Leurs tchaïs
TTITLE8=Kansas passe une commande
TTITLE9=Sex ist toll
TTITLE10=Kansas 2000
TTITLE11=Partir dans la voiture
TTITLE12=Outro KOE and Bonus track
EXTD=The first album of Kansas !
EXTT0=
EXTT1=
EXTT2=
EXTT3=
EXTT4=
EXTT5=
EXTT6=
EXTT7=
EXTT8=
EXTT9=
EXTT10=
EXTT11=
EXTT12=
PLAYORDER=
